<svg xmlns="http://www.w3.org/2000/svg" viewBox="0 0 1122 1104"><defs><style>.cls-1{fill:#efefef;}.cls-2,.cls-5{fill:none;stroke-linecap:round;stroke-miterlimit:10;stroke-width:20px;}.cls-2{stroke:#565656;}.cls-3{fill:#b2c22c;}.cls-3,.cls-4{opacity:0.8;}.cls-4{fill:#9c9e2a;}.cls-5{stroke:#d75a4a;}</style></defs><title>Mic-off</title><g id="Object"><circle class="cls-1" cx="561.5" cy="547.5" r="547.5"/><path class="cls-2" d="M737.37,554.62v59.1c0,86.1-62.92,161.73-148.48,171.43-101.33,11.49-187.52-67.83-187.52-166.89V554.62"/><line class="cls-2" x1="569.37" y1="789.82" x2="569.37" y2="868.22"/><polyline class="cls-2" points="636.57 868.23 566.88 868.23 502.17 868.23"/><path class="cls-3" d="M569.37,730.26h0c-61.6,0-112-50.4-112-112V349.46c0-61.6,50.4-112,112-112h0c61.6,0,112,50.4,112,112v268.8C681.37,679.86,631,730.26,569.37,730.26Z"/><path class="cls-4" d="M681.37,618.26V349.46c0-61.6-50.4-112-112-112v492.8C631,730.26,681.37,679.86,681.37,618.26Z"/><line class="cls-5" x1="309.28" y1="786.26" x2="813.28" y2="282.26"/></g></svg>