<svg xmlns="http://www.w3.org/2000/svg" viewBox="0 0 1104 1104"><defs><style>.cls-1{fill:#efefef;}.cls-2{fill:none;stroke:#565656;stroke-linecap:round;stroke-miterlimit:10;stroke-width:20px;}.cls-3{fill:#b2c22c;}.cls-3,.cls-4{opacity:0.8;}.cls-4{fill:#9c9e2a;}</style></defs><title>Mic-on</title><g id="Object"><circle class="cls-1" cx="552.5" cy="552.5" r="547.5"/><path class="cls-2" d="M732,561.81v69.73c0,92.26-67.42,173.28-159.09,183.67C464.35,827.52,372,742.54,372,636.4V561.81"/><path class="cls-3" d="M552,756.4h0c-66,0-120-54-120-120v-288c0-66,54-120,120-120h0c66,0,120,54,120,120v288C672,702.4,618,756.4,552,756.4Z"/><line class="cls-2" x1="552" y1="815.81" x2="552" y2="899.81"/><polyline class="cls-2" points="624 900.81 550.41 900.81 480 900.81"/><path class="cls-4" d="M672,636.4v-288c0-66-54-120-120-120v528C618,756.4,672,702.4,672,636.4Z"/></g></svg>